{
  "accessors": [
    {
      "bufferView": 2,
      "componentType": 5126,
      "count": 878,
      "max": [
        2.368889093399048,
        3.555189609527588,
        1.1946388483047485
      ],
      "min": [
        -1.1944961547851563,
        -0.008040107786655426,
        -1.194493055343628
      ],
      "type": "VEC3"
    },
    {
      "bufferView": 2,
      "byteOffset": 10536,
      "componentType": 5126,
      "count": 878,
      "max": [
        1.0,
        1.0,
        1.0
      ],
      "min": [
        -1.0,
        -1.0,
        -1.0
      ],
      "type": "VEC3"
    },
    {
      "bufferView": 3,
      "componentType": 5126,
      "count": 878,
      "max": [
        0.9993616938591003,
        1.0,
        0.9993775486946106,
        1.0
      ],
      "min": [
        -1.0,
        -0.8667144775390625,
        -0.9999373555183411,
        1.0
      ],
      "type": "VEC4"
    },
    {
      "bufferView": 1,
      "componentType": 5126,
      "count": 878,
      "max": [
        0.9929795265197754,
        0.9174728989601135
      ],
      "min": [
        0.5245344638824463,
        0.0017135415691882372
      ],
      "type": "VEC2"
    },
    {
      "bufferView": 1,
      "byteOffset": 7024,
      "componentType": 5126,
      "count": 878,
      "max": [
        0.9929795265197754,
        0.9174728989601135
      ],
      "min": [
        0.5245344638824463,
        0.0017135415691882372
      ],
      "type": "VEC2"
    },
    {
      "bufferView": 1,
      "byteOffset": 14048,
      "componentType": 5126,
      "count": 878,
      "max": [
        0.9929795265197754,
        0.9174728989601135
      ],
      "min": [
        0.5245344638824463,
        0.0017135415691882372
      ],
      "type": "VEC2"
    },
    {
      "bufferView": 0,
      "componentType": 5125,
      "count": 3888,
      "type": "SCALAR"
    },
    {
      "bufferView": 2,
      "byteOffset": 21072,
      "componentType": 5126,
      "count": 778,
      "max": [
        2.3688926696777344,
        3.5622127056121826,
        1.1946386098861694
      ],
      "min": [
        -1.194493293762207,
        -0.0010172697948291898,
        -1.1944934129714966
      ],
      "type": "VEC3"
    },
    {
      "bufferView": 2,
      "byteOffset": 30408,
      "componentType": 5126,
      "count": 778,
      "max": [
        1.0,
        1.0,
        1.0
      ],
      "min": [
        -1.0,
        -1.0,
        -1.0
      ],
      "type": "VEC3"
    },
    {
      "bufferView": 3,
      "byteOffset": 14048,
      "componentType": 5126,
      "count": 778,
      "max": [
        1.0,
        1.0,
        0.9999982714653015,
        1.0
      ],
      "min": [
        -0.9993411898612976,
        -0.9241154789924622,
        -0.9999946355819702,
        1.0
      ],
      "type": "VEC4"
    },
    {
      "bufferView": 1,
      "byteOffset": 21072,
      "componentType": 5126,
      "count": 778,
      "max": [
        0.9982864856719971,
        0.9625216126441956
      ],
      "min": [
        0.43859535455703735,
        0.07343916594982147
      ],
      "type": "VEC2"
    },
    {
      "bufferView": 1,
      "byteOffset": 27296,
      "componentType": 5126,
      "count": 778,
      "max": [
        0.9982864856719971,
        0.9625216126441956
      ],
      "min": [
        0.43859535455703735,
        0.07343916594982147
      ],
      "type": "VEC2"
    },
    {
      "bufferView": 1,
      "byteOffset": 33520,
      "componentType": 5126,
      "count": 778,
      "max": [
        0.9982864856719971,
        0.9625216126441956
      ],
      "min": [
        0.43859535455703735,
        0.07343916594982147
      ],
      "type": "VEC2"
    },
    {
      "bufferView": 0,
      "byteOffset": 15552,
      "componentType": 5125,
      "count": 3312,
      "type": "SCALAR"
    },
    {
      "bufferView": 2,
      "byteOffset": 39744,
      "componentType": 5126,
      "count": 968,
      "max": [
        2.304096221923828,
        1.6944128274917603,
        2.3297619819641113
      ],
      "min": [
        -2.346973419189453,
        4.405152154163261e-08,
        -2.3382277488708496
      ],
      "type": "VEC3"
    },
    {
      "bufferView": 2,
      "byteOffset": 51360,
      "componentType": 5126,
      "count": 968,
      "max": [
        0.9998515844345093,
        0.9999449849128723,
        0.9981318712234497
      ],
      "min": [
        -0.999851644039154,
        -0.9999455213546753,
        -0.9992058873176575
      ],
      "type": "VEC3"
    },
    {
      "bufferView": 3,
      "byteOffset": 26496,
      "componentType": 5126,
      "count": 968,
      "max": [
        0.9715811014175415,
        0.999849796295166,
        0.8559168577194214,
        1.0
      ],
      "min": [
        -0.9700639843940735,
        -1.0,
        -0.996907651424408,
        1.0
      ],
      "type": "VEC4"
    },
    {
      "bufferView": 1,
      "byteOffset": 39744,
      "componentType": 5126,
      "count": 968,
      "max": [
        0.8159083127975464,
        0.7795166373252869
      ],
      "min": [
        0.09371155500411987,
        0.05388671159744263
      ],
      "type": "VEC2"
    },
    {
      "bufferView": 1,
      "byteOffset": 47488,
      "componentType": 5126,
      "count": 968,
      "max": [
        0.8159083127975464,
        0.7795166373252869
      ],
      "min": [
        0.09371155500411987,
        0.05388671159744263
      ],
      "type": "VEC2"
    },
    {
      "bufferView": 1,
      "byteOffset": 55232,
      "componentType": 5126,
      "count": 968,
      "max": [
        0.8159083127975464,
        0.7795166373252869
      ],
      "min": [
        0.09371155500411987,
        0.05388671159744263
      ],
      "type": "VEC2"
    },
    {
      "bufferView": 0,
      "byteOffset": 28800,
      "componentType": 5125,
      "count": 4368,
      "type": "SCALAR"
    },
    {
      "bufferView": 2,
      "byteOffset": 62976,
      "componentType": 5126,
      "count": 881,
      "max": [
        1.205125331878662,
        0.34175145626068115,
        1.2051255702972412
      ],
      "min": [
        -1.205125331878662,
        -2.5456358798692236e-07,
        -1.2051256895065308
      ],
      "type": "VEC3"
    },
    {
      "bufferView": 2,
      "byteOffset": 73548,
      "componentType": 5126,
      "count": 881,
      "max": [
        1.0,
        1.0,
        1.0
      ],
      "min": [
        -1.0,
        -0.9997881650924683,
        -1.0
      ],
      "type": "VEC3"
    },
    {
      "bufferView": 3,
      "byteOffset": 41984,
      "componentType": 5126,
      "count": 881,
      "max": [
        0.9999510645866394,
        1.0,
        1.0,
        1.0
      ],
      "min": [
        -0.9999514818191528,
        -0.4893171191215515,
        -1.0,
        1.0
      ],
      "type": "VEC4"
    },
    {
      "bufferView": 1,
      "byteOffset": 62976,
      "componentType": 5126,
      "count": 881,
      "max": [
        0.865389347076416,
        0.7994459867477417
      ],
      "min": [
        0.10125834494829178,
        0.17859965562820435
      ],
      "type": "VEC2"
    },
    {
      "bufferView": 1,
      "byteOffset": 70024,
      "componentType": 5126,
      "count": 881,
      "max": [
        0.865389347076416,
        0.7994459867477417
      ],
      "min": [
        0.10125834494829178,
        0.17859965562820435
      ],
      "type": "VEC2"
    },
    {
      "bufferView": 1,
      "byteOffset": 77072,
      "componentType": 5126,
      "count": 881,
      "max": [
        0.865389347076416,
        0.7994459867477417
      ],
      "min": [
        0.10125834494829178,
        0.17859965562820435
      ],
      "type": "VEC2"
    },
    {
      "bufferView": 0,
      "byteOffset": 46272,
      "componentType": 5125,
      "count": 2184,
      "type": "SCALAR"
    },
    {
      "bufferView": 2,
      "byteOffset": 84120,
      "componentType": 5126,
      "count": 966,
      "max": [
        1.2007217407226563,
        0.6583980321884155,
        1.200706124305725
      ],
      "min": [
        -1.2006912231445313,
        -3.169232059008209e-07,
        -1.2007063627243042
      ],
      "type": "VEC3"
    },
    {
      "bufferView": 2,
      "byteOffset": 95712,
      "componentType": 5126,
      "count": 966,
      "max": [
        1.0,
        1.0,
        1.0
      ],
      "min": [
        -1.0,
        -0.999788224697113,
        -1.0
      ],
      "type": "VEC3"
    },
    {
      "bufferView": 3,
      "byteOffset": 56080,
      "componentType": 5126,
      "count": 966,
      "max": [
        0.9999510645866394,
        1.0,
        1.0,
        1.0
      ],
      "min": [
        -0.9999514818191528,
        -0.4912773072719574,
        -1.0,
        1.0
      ],
      "type": "VEC4"
    },
    {
      "bufferView": 1,
      "byteOffset": 84120,
      "componentType": 5126,
      "count": 966,
      "max": [
        0.7899335622787476,
        0.9739477038383484
      ],
      "min": [
        0.0821816623210907,
        0.17859965562820435
      ],
      "type": "VEC2"
    },
    {
      "bufferView": 1,
      "byteOffset": 91848,
      "componentType": 5126,
      "count": 966,
      "max": [
        0.7899335622787476,
        0.9739477038383484
      ],
      "min": [
        0.0821816623210907,
        0.17859965562820435
      ],
      "type": "VEC2"
    },
    {
      "bufferView": 1,
      "byteOffset": 99576,
      "componentType": 5126,
      "count": 966,
      "max": [
        0.7899335622787476,
        0.9739477038383484
      ],
      "min": [
        0.0821816623210907,
        0.17859965562820435
      ],
      "type": "VEC2"
    },
    {
      "bufferView": 0,
      "byteOffset": 55008,
      "componentType": 5125,
      "count": 2256,
      "type": "SCALAR"
    },
    {
      "bufferView": 2,
      "byteOffset": 107304,
      "componentType": 5126,
      "count": 832,
      "max": [
        1.3258132934570313,
        0.1972615122795105,
        1.1542954444885254
      ],
      "min": [
        -1.3258285522460938,
        -0.19725599884986877,
        -1.0821555852890015
      ],
      "type": "VEC3"
    },
    {
      "bufferView": 2,
      "byteOffset": 117288,
      "componentType": 5126,
      "count": 832,
      "max": [
        0.9999706149101257,
        1.0,
        1.0
      ],
      "min": [
        -0.9999706745147705,
        -1.0,
        -1.0
      ],
      "type": "VEC3"
    },
    {
      "bufferView": 3,
      "byteOffset": 71536,
      "componentType": 5126,
      "count": 832,
      "max": [
        0.8660427331924438,
        1.0,
        1.0,
        1.0
      ],
      "min": [
        -0.019918736070394516,
        -1.0,
        -1.0,
        1.0
      ],
      "type": "VEC4"
    },
    {
      "bufferView": 1,
      "byteOffset": 107304,
      "componentType": 5126,
      "count": 832,
      "max": [
        0.7423492074012756,
        0.9549710750579834
      ],
      "min": [
        0.07482248544692993,
        0.09609472751617432
      ],
      "type": "VEC2"
    },
    {
      "bufferView": 1,
      "byteOffset": 113960,
      "componentType": 5126,
      "count": 832,
      "max": [
        0.7423492074012756,
        0.9549710750579834
      ],
      "min": [
        0.07482248544692993,
        0.09609472751617432
      ],
      "type": "VEC2"
    },
    {
      "bufferView": 1,
      "byteOffset": 120616,
      "componentType": 5126,
      "count": 832,
      "max": [
        0.7423492074012756,
        0.9549710750579834
      ],
      "min": [
        0.07482248544692993,
        0.09609472751617432
      ],
      "type": "VEC2"
    },
    {
      "bufferView": 0,
      "byteOffset": 64032,
      "componentType": 5125,
      "count": 1752,
      "type": "SCALAR"
    },
    {
      "bufferView": 2,
      "byteOffset": 127272,
      "componentType": 5126,
      "count": 2474,
      "max": [
        1.4634958505630493,
        1.4565026760101318,
        1.4629379510879517
      ],
      "min": [
        -1.7061551809310913,
        -1.7061314582824707,
        -1.7080522775650024
      ],
      "type": "VEC3"
    },
    {
      "bufferView": 2,
      "byteOffset": 156960,
      "componentType": 5126,
      "count": 2474,
      "max": [
        1.0,
        1.0,
        1.0
      ],
      "min": [
        -1.0,
        -1.0,
        -1.0
      ],
      "type": "VEC3"
    },
    {
      "bufferView": 3,
      "byteOffset": 84848,
      "componentType": 5126,
      "count": 2474,
      "max": [
        1.0,
        1.0,
        1.0,
        1.0
      ],
      "min": [
        -1.0,
        -1.0,
        -1.0,
        1.0
      ],
      "type": "VEC4"
    },
    {
      "bufferView": 1,
      "byteOffset": 127272,
      "componentType": 5126,
      "count": 2474,
      "max": [
        0.9673863649368286,
        0.9658061265945435
      ],
      "min": [
        0.03895169496536255,
        0.11853567510843277
      ],
      "type": "VEC2"
    },
    {
      "bufferView": 1,
      "byteOffset": 147064,
      "componentType": 5126,
      "count": 2474,
      "max": [
        0.9673863649368286,
        0.9658061265945435
      ],
      "min": [
        0.03895169496536255,
        0.11853567510843277
      ],
      "type": "VEC2"
    },
    {
      "bufferView": 1,
      "byteOffset": 166856,
      "componentType": 5126,
      "count": 2474,
      "max": [
        0.9673863649368286,
        0.9658061265945435
      ],
      "min": [
        0.03895169496536255,
        0.11853567510843277
      ],
      "type": "VEC2"
    },
    {
      "bufferView": 0,
      "byteOffset": 71040,
      "componentType": 5125,
      "count": 5904,
      "type": "SCALAR"
    },
    {
      "bufferView": 2,
      "byteOffset": 186648,
      "componentType": 5126,
      "count": 2483,
      "max": [
        1.932582974433899,
        1.2754207849502563,
        1.3613650798797607
      ],
      "min": [
        -2.090209722518921,
        -1.7985618114471436,
        -1.3611435890197754
      ],
      "type": "VEC3"
    },
    {
      "bufferView": 2,
      "byteOffset": 216444,
      "componentType": 5126,
      "count": 2483,
      "max": [
        1.0,
        1.0,
        1.0
      ],
      "min": [
        -1.0,
        -1.0,
        -1.0
      ],
      "type": "VEC3"
    },
    {
      "bufferView": 3,
      "byteOffset": 124432,
      "componentType": 5126,
      "count": 2483,
      "max": [
        1.0,
        1.0,
        1.0,
        1.0
      ],
      "min": [
        -1.0,
        -1.0,
        -1.0,
        1.0
      ],
      "type": "VEC4"
    },
    {
      "bufferView": 1,
      "byteOffset": 186648,
      "componentType": 5126,
      "count": 2483,
      "max": [
        0.9679579138755798,
        0.9674022197723389
      ],
      "min": [
        0.007512122392654419,
        0.07343921065330505
      ],
      "type": "VEC2"
    },
    {
      "bufferView": 1,
      "byteOffset": 206512,
      "componentType": 5126,
      "count": 2483,
      "max": [
        0.9679579138755798,
        0.9674022197723389
      ],
      "min": [
        0.007512122392654419,
        0.07343921065330505
      ],
      "type": "VEC2"
    },
    {
      "bufferView": 1,
      "byteOffset": 226376,
      "componentType": 5126,
      "count": 2483,
      "max": [
        0.9679579138755798,
        0.9674022197723389
      ],
      "min": [
        0.007512122392654419,
        0.07343921065330505
      ],
      "type": "VEC2"
    },
    {
      "bufferView": 0,
      "byteOffset": 94656,
      "componentType": 5125,
      "count": 6126,
      "type": "SCALAR"
    },
    {
      "bufferView": 2,
      "byteOffset": 246240,
      "componentType": 5126,
      "count": 2550,
      "max": [
        1.194507360458374,
        3.9783949851989746,
        1.194493293762207
      ],
      "min": [
        -1.9943526983261108,
        -0.008039564825594425,
        -1.1944935321807861
      ],
      "type": "VEC3"
    },
    {
      "bufferView": 2,
      "byteOffset": 276840,
      "componentType": 5126,
      "count": 2550,
      "max": [
        1.0,
        1.0,
        1.0
      ],
      "min": [
        -1.0,
        -1.0,
        -1.0
      ],
      "type": "VEC3"
    },
    {
      "bufferView": 3,
      "byteOffset": 164160,
      "componentType": 5126,
      "count": 2550,
      "max": [
        1.0,
        1.0,
        1.0,
        1.0
      ],
      "min": [
        -1.0,
        -1.0,
        -1.0,
        1.0
      ],
      "type": "VEC4"
    },
    {
      "bufferView": 1,
      "byteOffset": 246240,
      "componentType": 5126,
      "count": 2550,
      "max": [
        0.9941525459289551,
        0.9954663515090942
      ],
      "min": [
        0.0017135441303253174,
        0.17859965562820435
      ],
      "type": "VEC2"
    },
    {
      "bufferView": 1,
      "byteOffset": 266640,
      "componentType": 5126,
      "count": 2550,
      "max": [
        0.9941525459289551,
        0.9954663515090942
      ],
      "min": [
        0.0017135441303253174,
        0.17859965562820435
      ],
      "type": "VEC2"
    },
    {
      "bufferView": 1,
      "byteOffset": 287040,
      "componentType": 5126,
      "count": 2550,
      "max": [
        0.9941525459289551,
        0.9954663515090942
      ],
      "min": [
        0.0017135441303253174,
        0.17859965562820435
      ],
      "type": "VEC2"
    },
    {
      "bufferView": 0,
      "byteOffset": 119160,
      "componentType": 5125,
      "count": 6480,
      "type": "SCALAR"
    },
    {
      "bufferView": 2,
      "byteOffset": 307440,
      "componentType": 5126,
      "count": 2848,
      "max": [
        1.994354248046875,
        4.730587959289551,
        1.1944936513900757
      ],
      "min": [
        -1.1944907903671265,
        -0.005907861050218344,
        -1.1944940090179443
      ],
      "type": "VEC3"
    },
    {
      "bufferView": 2,
      "byteOffset": 341616,
      "componentType": 5126,
      "count": 2848,
      "max": [
        1.0,
        1.0,
        1.0
      ],
      "min": [
        -1.0,
        -1.0,
        -1.0
      ],
      "type": "VEC3"
    },
    {
      "bufferView": 3,
      "byteOffset": 204960,
      "componentType": 5126,
      "count": 2848,
      "max": [
        1.0,
        1.0,
        1.0,
        1.0
      ],
      "min": [
        -1.0,
        -1.0,
        -1.0,
        1.0
      ],
      "type": "VEC4"
    },
    {
      "bufferView": 1,
      "byteOffset": 307440,
      "componentType": 5126,
      "count": 2848,
      "max": [
        0.9891530871391296,
        0.9212685227394104
      ],
      "min": [
        0.03843611478805542,
        0.0017135415691882372
      ],
      "type": "VEC2"
    },
    {
      "bufferView": 1,
      "byteOffset": 330224,
      "componentType": 5126,
      "count": 2848,
      "max": [
        0.9891530871391296,
        0.9212685227394104
      ],
      "min": [
        0.03843611478805542,
        0.0017135415691882372
      ],
      "type": "VEC2"
    },
    {
      "bufferView": 1,
      "byteOffset": 353008,
      "componentType": 5126,
      "count": 2848,
      "max": [
        0.9891530871391296,
        0.9212685227394104
      ],
      "min": [
        0.03843611478805542,
        0.0017135415691882372
      ],
      "type": "VEC2"
    },
    {
      "bufferView": 0,
      "byteOffset": 145080,
      "componentType": 5125,
      "count": 7344,
      "type": "SCALAR"
    },
    {
      "bufferView": 2,
      "byteOffset": 375792,
      "componentType": 5126,
      "count": 3509,
      "max": [
        1.9943751096725464,
        3.9783949851989746,
        1.1944934129714966
      ],
      "min": [
        -1.9943584203720093,
        -0.008039564825594425,
        -1.1944935321807861
      ],
      "type": "VEC3"
    },
    {
      "bufferView": 2,
      "byteOffset": 417900,
      "componentType": 5126,
      "count": 3509,
      "max": [
        1.0,
        1.0,
        1.0
      ],
      "min": [
        -1.0,
        -1.0,
        -1.0
      ],
      "type": "VEC3"
    },
    {
      "bufferView": 3,
      "byteOffset": 250528,
      "componentType": 5126,
      "count": 3509,
      "max": [
        1.0,
        1.0,
        1.0,
        1.0
      ],
      "min": [
        -1.0,
        -1.0,
        -1.0,
        1.0
      ],
      "type": "VEC4"
    },
    {
      "bufferView": 1,
      "byteOffset": 375792,
      "componentType": 5126,
      "count": 3509,
      "max": [
        0.9979955554008484,
        0.9954640865325928
      ],
      "min": [
        0.0018641352653503418,
        0.0017135415691882372
      ],
      "type": "VEC2"
    },
    {
      "bufferView": 1,
      "byteOffset": 403864,
      "componentType": 5126,
      "count": 3509,
      "max": [
        0.9979955554008484,
        0.9954640865325928
      ],
      "min": [
        0.0018641352653503418,
        0.0017135415691882372
      ],
      "type": "VEC2"
    },
    {
      "bufferView": 1,
      "byteOffset": 431936,
      "componentType": 5126,
      "count": 3509,
      "max": [
        0.9979955554008484,
        0.9954640865325928
      ],
      "min": [
        0.0018641352653503418,
        0.0017135415691882372
      ],
      "type": "VEC2"
    },
    {
      "bufferView": 0,
      "byteOffset": 174456,
      "componentType": 5125,
      "count": 9024,
      "type": "SCALAR"
    },
    {
      "bufferView": 2,
      "byteOffset": 460008,
      "componentType": 5126,
      "count": 3440,
      "max": [
        1.1944940090179443,
        3.9908394813537598,
        2.0077781677246094
      ],
      "min": [
        -2.0077805519104004,
        -0.003261179430410266,
        -1.1944942474365234
      ],
      "type": "VEC3"
    },
    {
      "bufferView": 2,
      "byteOffset": 501288,
      "componentType": 5126,
      "count": 3440,
      "max": [
        1.0,
        1.0,
        1.0
      ],
      "min": [
        -1.0,
        -1.0,
        -1.0
      ],
      "type": "VEC3"
    },
    {
      "bufferView": 3,
      "byteOffset": 306672,
      "componentType": 5126,
      "count": 3440,
      "max": [
        1.0,
        1.0,
        1.0,
        1.0
      ],
      "min": [
        -1.0,
        -1.0,
        -1.0,
        1.0
      ],
      "type": "VEC4"
    },
    {
      "bufferView": 1,
      "byteOffset": 460008,
      "componentType": 5126,
      "count": 3440,
      "max": [
        0.9729980826377869,
        0.9716405272483826
      ],
      "min": [
        0.0018641278147697449,
        0.0017135415691882372
      ],
      "type": "VEC2"
    },
    {
      "bufferView": 1,
      "byteOffset": 487528,
      "componentType": 5126,
      "count": 3440,
      "max": [
        0.9729980826377869,
        0.9716405272483826
      ],
      "min": [
        0.0018641278147697449,
        0.0017135415691882372
      ],
      "type": "VEC2"
    },
    {
      "bufferView": 1,
      "byteOffset": 515048,
      "componentType": 5126,
      "count": 3440,
      "max": [
        0.9729980826377869,
        0.9716405272483826
      ],
      "min": [
        0.0018641278147697449,
        0.0017135415691882372
      ],
      "type": "VEC2"
    },
    {
      "bufferView": 0,
      "byteOffset": 210552,
      "componentType": 5125,
      "count": 8736,
      "type": "SCALAR"
    },
    {
      "bufferView": 2,
      "byteOffset": 542568,
      "componentType": 5126,
      "count": 4350,
      "max": [
        2.0077784061431885,
        3.9908394813537598,
        2.0077781677246094
      ],
      "min": [
        -2.0077786445617676,
        -0.003261179430410266,
        -1.194494366645813
      ],
      "type": "VEC3"
    },
    {
      "bufferView": 2,
      "byteOffset": 594768,
      "componentType": 5126,
      "count": 4350,
      "max": [
        1.0,
        1.0,
        1.0
      ],
      "min": [
        -1.0,
        -1.0,
        -1.0
      ],
      "type": "VEC3"
    },
    {
      "bufferView": 3,
      "byteOffset": 361712,
      "componentType": 5126,
      "count": 4350,
      "max": [
        1.0,
        1.0,
        1.0,
        1.0
      ],
      "min": [
        -1.0,
        -1.0,
        -1.0,
        1.0
      ],
      "type": "VEC4"
    },
    {
      "bufferView": 1,
      "byteOffset": 542568,
      "componentType": 5126,
      "count": 4350,
      "max": [
        0.9787001609802246,
        0.9745180010795593
      ],
      "min": [
        0.0017135441303253174,
        0.001713573932647705
      ],
      "type": "VEC2"
    },
    {
      "bufferView": 1,
      "byteOffset": 577368,
      "componentType": 5126,
      "count": 4350,
      "max": [
        0.9787001609802246,
        0.9745180010795593
      ],
      "min": [
        0.0017135441303253174,
        0.001713573932647705
      ],
      "type": "VEC2"
    },
    {
      "bufferView": 1,
      "byteOffset": 612168,
      "componentType": 5126,
      "count": 4350,
      "max": [
        0.9787001609802246,
        0.9745180010795593
      ],
      "min": [
        0.0017135441303253174,
        0.001713573932647705
      ],
      "type": "VEC2"
    },
    {
      "bufferView": 0,
      "byteOffset": 245496,
      "componentType": 5125,
      "count": 10992,
      "type": "SCALAR"
    },
    {
      "bufferView": 2,
      "byteOffset": 646968,
      "componentType": 5126,
      "count": 5284,
      "max": [
        2.0077781677246094,
        3.990839719772339,
        2.0077781677246094
      ],
      "min": [
        -2.0077788829803467,
        -0.003261179430410266,
        -2.0077781677246094
      ],
      "type": "VEC3"
    },
    {
      "bufferView": 2,
      "byteOffset": 710376,
      "componentType": 5126,
      "count": 5284,
      "max": [
        1.0,
        1.0,
        1.0
      ],
      "min": [
        -1.0,
        -1.0,
        -1.0
      ],
      "type": "VEC3"
    },
    {
      "bufferView": 3,
      "byteOffset": 431312,
      "componentType": 5126,
      "count": 5284,
      "max": [
        1.0,
        1.0,
        1.0,
        1.0
      ],
      "min": [
        -1.0,
        -1.0,
        -1.0,
        1.0
      ],
      "type": "VEC4"
    },
    {
      "bufferView": 1,
      "byteOffset": 646968,
      "componentType": 5126,
      "count": 5284,
      "max": [
        0.9841536283493042,
        0.9805729389190674
      ],
      "min": [
        0.010924041271209717,
        0.0017135441303253174
      ],
      "type": "VEC2"
    },
    {
      "bufferView": 1,
      "byteOffset": 689240,
      "componentType": 5126,
      "count": 5284,
      "max": [
        0.9841536283493042,
        0.9805729389190674
      ],
      "min": [
        0.010924041271209717,
        0.0017135441303253174
      ],
      "type": "VEC2"
    },
    {
      "bufferView": 1,
      "byteOffset": 731512,
      "componentType": 5126,
      "count": 5284,
      "max": [
        0.9841536283493042,
        0.9805729389190674
      ],
      "min": [
        0.010924041271209717,
        0.0017135441303253174
      ],
      "type": "VEC2"
    },
    {
      "bufferView": 0,
      "byteOffset": 289464,
      "componentType": 5125,
      "count": 13536,
      "type": "SCALAR"
    },
    {
      "bufferView": 2,
      "byteOffset": 773784,
      "componentType": 5126,
      "count": 824,
      "max": [
        1.1944856643676758,
        1.8153504133224487,
        1.1944931745529175
      ],
      "min": [
        -1.1945009231567383,
        -0.008039684034883976,
        -1.1944935321807861
      ],
      "type": "VEC3"
    },
    {
      "bufferView": 2,
      "byteOffset": 783672,
      "componentType": 5126,
      "count": 824,
      "max": [
        1.0,
        1.0,
        1.0
      ],
      "min": [
        -1.0,
        -0.9988596439361572,
        -1.0
      ],
      "type": "VEC3"
    },
    {
      "bufferView": 3,
      "byteOffset": 515856,
      "componentType": 5126,
      "count": 824,
      "max": [
        0.9999510645866394,
        1.0,
        1.0,
        1.0
      ],
      "min": [
        -0.9999514818191528,
        -0.9998810291290283,
        -1.0,
        1.0
      ],
      "type": "VEC4"
    },
    {
      "bufferView": 1,
      "byteOffset": 773784,
      "componentType": 5126,
      "count": 824,
      "max": [
        0.9973668456077576,
        0.9174725413322449
      ],
      "min": [
        0.10125834494829178,
        0.0017135292291641235
      ],
      "type": "VEC2"
    },
    {
      "bufferView": 1,
      "byteOffset": 780376,
      "componentType": 5126,
      "count": 824,
      "max": [
        0.9973668456077576,
        0.9174725413322449
      ],
      "min": [
        0.10125834494829178,
        0.0017135292291641235
      ],
      "type": "VEC2"
    },
    {
      "bufferView": 1,
      "byteOffset": 786968,
      "componentType": 5126,
      "count": 824,
      "max": [
        0.9973668456077576,
        0.9174725413322449
      ],
      "min": [
        0.10125834494829178,
        0.0017135292291641235
      ],
      "type": "VEC2"
    },
    {
      "bufferView": 0,
      "byteOffset": 343608,
      "componentType": 5125,
      "count": 1824,
      "type": "SCALAR"
    },
    {
      "bufferView": 2,
      "byteOffset": 793560,
      "componentType": 5126,
      "count": 1999,
      "max": [
        4.860180377960205,
        6.0476765632629395,
        1.1999999284744263
      ],
      "min": [
        -1.194493293762207,
        -0.008039564825594425,
        -1.2000001668930054
      ],
      "type": "VEC3"
    },
    {
      "bufferView": 2,
      "byteOffset": 817548,
      "componentType": 5126,
      "count": 1999,
      "max": [
        1.0,
        1.0,
        1.0
      ],
      "min": [
        -1.0,
        -1.0,
        -1.0
      ],
      "type": "VEC3"
    },
    {
      "bufferView": 3,
      "byteOffset": 529040,
      "componentType": 5126,
      "count": 1999,
      "max": [
        0.9999510645866394,
        1.0,
        1.0,
        1.0
      ],
      "min": [
        -1.0,
        -1.0,
        -1.0,
        1.0
      ],
      "type": "VEC4"
    },
    {
      "bufferView": 1,
      "byteOffset": 793560,
      "componentType": 5126,
      "count": 1999,
      "max": [
        0.9779976606369019,
        0.8946109414100647
      ],
      "min": [
        0.10125834494829178,
        0.0017135292291641235
      ],
      "type": "VEC2"
    },
    {
      "bufferView": 1,
      "byteOffset": 809552,
      "componentType": 5126,
      "count": 1999,
      "max": [
        0.9779976606369019,
        0.8946109414100647
      ],
      "min": [
        0.10125834494829178,
        0.0017135292291641235
      ],
      "type": "VEC2"
    },
    {
      "bufferView": 1,
      "byteOffset": 825544,
      "componentType": 5126,
      "count": 1999,
      "max": [
        0.9779976606369019,
        0.8946109414100647
      ],
      "min": [
        0.10125834494829178,
        0.0017135292291641235
      ],
      "type": "VEC2"
    },
    {
      "bufferView": 0,
      "byteOffset": 350904,
      "componentType": 5125,
      "count": 6240,
      "type": "SCALAR"
    },
    {
      "bufferView": 2,
      "byteOffset": 841536,
      "componentType": 5126,
      "count": 2048,
      "max": [
        8.13512134552002,
        9.326461791992188,
        1.1944934129714966
      ],
      "min": [
        -1.1944952011108398,
        -0.0027295469772070646,
        -1.194494605064392
      ],
      "type": "VEC3"
    },
    {
      "bufferView": 2,
      "byteOffset": 866112,
      "componentType": 5126,
      "count": 2048,
      "max": [
        1.0,
        1.0,
        1.0
      ],
      "min": [
        -1.0,
        -1.0,
        -1.0
      ],
      "type": "VEC3"
    },
    {
      "bufferView": 3,
      "byteOffset": 561024,
      "componentType": 5126,
      "count": 2048,
      "max": [
        0.9999510645866394,
        1.0,
        1.0,
        1.0
      ],
      "min": [
        -1.0,
        -1.0,
        -1.0,
        1.0
      ],
      "type": "VEC4"
    },
    {
      "bufferView": 1,
      "byteOffset": 841536,
      "componentType": 5126,
      "count": 2048,
      "max": [
        0.9779815077781677,
        0.9620579481124878
      ],
      "min": [
        0.0017135441303253174,
        0.0017135292291641235
      ],
      "type": "VEC2"
    },
    {
      "bufferView": 1,
      "byteOffset": 857920,
      "componentType": 5126,
      "count": 2048,
      "max": [
        0.9779815077781677,
        0.9620579481124878
      ],
      "min": [
        0.0017135441303253174,
        0.0017135292291641235
      ],
      "type": "VEC2"
    },
    {
      "bufferView": 1,
      "byteOffset": 874304,
      "componentType": 5126,
      "count": 2048,
      "max": [
        0.9779815077781677,
        0.9620579481124878
      ],
      "min": [
        0.0017135441303253174,
        0.0017135292291641235
      ],
      "type": "VEC2"
    },
    {
      "bufferView": 0,
      "byteOffset": 375864,
      "componentType": 5125,
      "count": 6384,
      "type": "SCALAR"
    },
    {
      "bufferView": 2,
      "byteOffset": 890688,
      "componentType": 5126,
      "count": 538,
      "max": [
        1.594699740409851,
        1.221062421798706,
        1.5866771936416626
      ],
      "min": [
        -1.5621072053909302,
        -7.1818968550019235e-09,
        -1.5871400833129883
      ],
      "type": "VEC3"
    },
    {
      "bufferView": 2,
      "byteOffset": 897144,
      "componentType": 5126,
      "count": 538,
      "max": [
        1.0,
        1.0,
        0.9951014518737793
      ],
      "min": [
        -1.0,
        -1.0,
        -0.9948776960372925
      ],
      "type": "VEC3"
    },
    {
      "bufferView": 3,
      "byteOffset": 593792,
      "componentType": 5126,
      "count": 538,
      "max": [
        0.8897615075111389,
        0.9999122619628906,
        0.9999324679374695,
        1.0
      ],
      "min": [
        -1.0,
        -1.0,
        -0.9040307402610779,
        -1.0
      ],
      "type": "VEC4"
    },
    {
      "bufferView": 1,
      "byteOffset": 890688,
      "componentType": 5126,
      "count": 538,
      "max": [
        0.8149687051773071,
        0.7063661217689514
      ],
      "min": [
        0.15287071466445923,
        0.046778202056884766
      ],
      "type": "VEC2"
    },
    {
      "bufferView": 1,
      "byteOffset": 894992,
      "componentType": 5126,
      "count": 538,
      "max": [
        0.8149687051773071,
        0.7063661217689514
      ],
      "min": [
        0.15287071466445923,
        0.046778202056884766
      ],
      "type": "VEC2"
    },
    {
      "bufferView": 1,
      "byteOffset": 899296,
      "componentType": 5126,
      "count": 538,
      "max": [
        0.8149687051773071,
        0.7063661217689514
      ],
      "min": [
        0.15287071466445923,
        0.046778202056884766
      ],
      "type": "VEC2"
    },
    {
      "bufferView": 0,
      "byteOffset": 401400,
      "componentType": 5125,
      "count": 2562,
      "type": "SCALAR"
    },
    {
      "bufferView": 2,
      "byteOffset": 903600,
      "componentType": 5126,
      "count": 1473,
      "max": [
        1.1944947242736816,
        1.9784713983535767,
        1.194493293762207
      ],
      "min": [
        -1.194491982460022,
        -0.008039564825594425,
        -1.1944935321807861
      ],
      "type": "VEC3"
    },
    {
      "bufferView": 2,
      "byteOffset": 921276,
      "componentType": 5126,
      "count": 1473,
      "max": [
        1.0,
        1.0,
        1.0
      ],
      "min": [
        -1.0,
        -1.0,
        -1.0
      ],
      "type": "VEC3"
    },
    {
      "bufferView": 3,
      "byteOffset": 602400,
      "componentType": 5126,
      "count": 1473,
      "max": [
        0.9999510645866394,
        1.0,
        1.0,
        1.0
      ],
      "min": [
        -0.9999515414237976,
        -1.0,
        -1.0,
        1.0
      ],
      "type": "VEC4"
    },
    {
      "bufferView": 1,
      "byteOffset": 903600,
      "componentType": 5126,
      "count": 1473,
      "max": [
        0.9873676896095276,
        0.8746609687805176
      ],
      "min": [
        0.03843611478805542,
        0.001713573932647705
      ],
      "type": "VEC2"
    },
    {
      "bufferView": 1,
      "byteOffset": 915384,
      "componentType": 5126,
      "count": 1473,
      "max": [
        0.9873676896095276,
        0.8746609687805176
      ],
      "min": [
        0.03843611478805542,
        0.001713573932647705
      ],
      "type": "VEC2"
    },
    {
      "bufferView": 1,
      "byteOffset": 927168,
      "componentType": 5126,
      "count": 1473,
      "max": [
        0.9873676896095276,
        0.8746609687805176
      ],
      "min": [
        0.03843611478805542,
        0.001713573932647705
      ],
      "type": "VEC2"
    },
    {
      "bufferView": 0,
      "byteOffset": 411648,
      "componentType": 5125,
      "count": 3216,
      "type": "SCALAR"
    },
    {
      "bufferView": 2,
      "byteOffset": 938952,
      "componentType": 5126,
      "count": 1498,
      "max": [
        1.1944937705993652,
        3.9783949851989746,
        1.194493293762207
      ],
      "min": [
        -1.1944931745529175,
        -0.008039564825594425,
        -1.1944935321807861
      ],
      "type": "VEC3"
    },
    {
      "bufferView": 2,
      "byteOffset": 956928,
      "componentType": 5126,
      "count": 1498,
      "max": [
        1.0,
        1.0,
        1.0
      ],
      "min": [
        -1.0,
        -1.0,
        -1.0
      ],
      "type": "VEC3"
    },
    {
      "bufferView": 3,
      "byteOffset": 625968,
      "componentType": 5126,
      "count": 1498,
      "max": [
        0.9999510645866394,
        1.0,
        1.0,
        1.0
      ],
      "min": [
        -0.9999515414237976,
        -1.0,
        -1.0,
        1.0
      ],
      "type": "VEC4"
    },
    {
      "bufferView": 1,
      "byteOffset": 938952,
      "componentType": 5126,
      "count": 1498,
      "max": [
        0.9932869672775269,
        0.8953354954719543
      ],
      "min": [
        0.10125834494829178,
        0.17859965562820435
      ],
      "type": "VEC2"
    },
    {
      "bufferView": 1,
      "byteOffset": 950936,
      "componentType": 5126,
      "count": 1498,
      "max": [
        0.9932869672775269,
        0.8953354954719543
      ],
      "min": [
        0.10125834494829178,
        0.17859965562820435
      ],
      "type": "VEC2"
    },
    {
      "bufferView": 1,
      "byteOffset": 962920,
      "componentType": 5126,
      "count": 1498,
      "max": [
        0.9932869672775269,
        0.8953354954719543
      ],
      "min": [
        0.10125834494829178,
        0.17859965562820435
      ],
      "type": "VEC2"
    },
    {
      "bufferView": 0,
      "byteOffset": 424512,
      "componentType": 5125,
      "count": 3360,
      "type": "SCALAR"
    },
    {
      "bufferView": 2,
      "byteOffset": 974904,
      "componentType": 5126,
      "count": 1547,
      "max": [
        1.2000007629394531,
        4.980878829956055,
        1.1999999284744263
      ],
      "min": [
        -1.1999988555908203,
        -0.01076933741569519,
        -1.2000000476837158
      ],
      "type": "VEC3"
    },
    {
      "bufferView": 2,
      "byteOffset": 993468,
      "componentType": 5126,
      "count": 1547,
      "max": [
        1.0,
        1.0,
        1.0
      ],
      "min": [
        -1.0,
        -1.0,
        -1.0
      ],
      "type": "VEC3"
    },
    {
      "bufferView": 3,
      "byteOffset": 649936,
      "componentType": 5126,
      "count": 1547,
      "max": [
        0.9999510645866394,
        1.0,
        1.0,
        1.0
      ],
      "min": [
        -0.9999515414237976,
        -1.0,
        -1.0,
        1.0
      ],
      "type": "VEC4"
    },
    {
      "bufferView": 1,
      "byteOffset": 974904,
      "componentType": 5126,
      "count": 1547,
      "max": [
        0.9829807877540588,
        0.8901849985122681
      ],
      "min": [
        0.0017135415691882372,
        0.0017135415691882372
      ],
      "type": "VEC2"
    },
    {
      "bufferView": 1,
      "byteOffset": 987280,
      "componentType": 5126,
      "count": 1547,
      "max": [
        0.9829807877540588,
        0.8901849985122681
      ],
      "min": [
        0.0017135415691882372,
        0.0017135415691882372
      ],
      "type": "VEC2"
    },
    {
      "bufferView": 1,
      "byteOffset": 999656,
      "componentType": 5126,
      "count": 1547,
      "max": [
        0.9829807877540588,
        0.8901849985122681
      ],
      "min": [
        0.0017135415691882372,
        0.0017135415691882372
      ],
      "type": "VEC2"
    },
    {
      "bufferView": 0,
      "byteOffset": 437952,
      "componentType": 5125,
      "count": 3648,
      "type": "SCALAR"
    },
    {
      "bufferView": 2,
      "byteOffset": 1012032,
      "componentType": 5126,
      "count": 1523,
      "max": [
        1.1944923400878906,
        6.977568626403809,
        1.1944934129714966
      ],
      "min": [
        -1.1944947242736816,
        -0.008039564825594425,
        -1.1944936513900757
      ],
      "type": "VEC3"
    },
    {
      "bufferView": 2,
      "byteOffset": 1030308,
      "componentType": 5126,
      "count": 1523,
      "max": [
        1.0,
        1.0,
        1.0
      ],
      "min": [
        -1.0,
        -1.0,
        -1.0
      ],
      "type": "VEC3"
    },
    {
      "bufferView": 3,
      "byteOffset": 674688,
      "componentType": 5126,
      "count": 1523,
      "max": [
        1.0,
        1.0,
        1.0,
        1.0
      ],
      "min": [
        -1.0,
        -1.0,
        -1.0,
        1.0
      ],
      "type": "VEC4"
    },
    {
      "bufferView": 1,
      "byteOffset": 1012032,
      "componentType": 5126,
      "count": 1523,
      "max": [
        0.9929962754249573,
        0.9980303049087524
      ],
      "min": [
        0.10125834494829178,
        0.07343918085098267
      ],
      "type": "VEC2"
    },
    {
      "bufferView": 1,
      "byteOffset": 1024216,
      "componentType": 5126,
      "count": 1523,
      "max": [
        0.9929962754249573,
        0.9980303049087524
      ],
      "min": [
        0.10125834494829178,
        0.07343918085098267
      ],
      "type": "VEC2"
    },
    {
      "bufferView": 1,
      "byteOffset": 1036400,
      "componentType": 5126,
      "count": 1523,
      "max": [
        0.9929962754249573,
        0.9980303049087524
      ],
      "min": [
        0.10125834494829178,
        0.07343918085098267
      ],
      "type": "VEC2"
    },
    {
      "bufferView": 0,
      "byteOffset": 452544,
      "componentType": 5125,
      "count": 3504,
      "type": "SCALAR"
    },
    {
      "bufferView": 2,
      "byteOffset": 1048584,
      "componentType": 5126,
      "count": 1548,
      "max": [
        1.1944913864135742,
        8.974479675292969,
        1.1944934129714966
      ],
      "min": [
        -1.1944959163665771,
        -0.008039564825594425,
        -1.1944936513900757
      ],
      "type": "VEC3"
    },
    {
      "bufferView": 2,
      "byteOffset": 1067160,
      "componentType": 5126,
      "count": 1548,
      "max": [
        1.0,
        1.0,
        1.0
      ],
      "min": [
        -1.0,
        -1.0,
        -1.0
      ],
      "type": "VEC3"
    },
    {
      "bufferView": 3,
      "byteOffset": 699056,
      "componentType": 5126,
      "count": 1548,
      "max": [
        1.0,
        1.0,
        1.0,
        1.0
      ],
      "min": [
        -1.0,
        -1.0,
        -1.0,
        1.0
      ],
      "type": "VEC4"
    },
    {
      "bufferView": 1,
      "byteOffset": 1048584,
      "componentType": 5126,
      "count": 1548,
      "max": [
        0.9979953765869141,
        0.9980319142341614
      ],
      "min": [
        0.10125834494829178,
        0.001713573932647705
      ],
      "type": "VEC2"
    },
    {
      "bufferView": 1,
      "byteOffset": 1060968,
      "componentType": 5126,
      "count": 1548,
      "max": [
        0.9979953765869141,
        0.9980319142341614
      ],
      "min": [
        0.10125834494829178,
        0.001713573932647705
      ],
      "type": "VEC2"
    },
    {
      "bufferView": 1,
      "byteOffset": 1073352,
      "componentType": 5126,
      "count": 1548,
      "max": [
        0.9979953765869141,
        0.9980319142341614
      ],
      "min": [
        0.10125834494829178,
        0.001713573932647705
      ],
      "type": "VEC2"
    },
    {
      "bufferView": 0,
      "byteOffset": 466560,
      "componentType": 5125,
      "count": 3648,
      "type": "SCALAR"
    },
    {
      "bufferView": 2,
      "byteOffset": 1085736,
      "componentType": 5126,
      "count": 1548,
      "max": [
        1.1944923400878906,
        10.972164154052734,
        1.1944934129714966
      ],
      "min": [
        -1.1944950819015503,
        -0.008039564825594425,
        -1.1944936513900757
      ],
      "type": "VEC3"
    },
    {
      "bufferView": 2,
      "byteOffset": 1104312,
      "componentType": 5126,
      "count": 1548,
      "max": [
        1.0,
        1.0,
        1.0
      ],
      "min": [
        -1.0,
        -1.0,
        -1.0
      ],
      "type": "VEC3"
    },
    {
      "bufferView": 3,
      "byteOffset": 723824,
      "componentType": 5126,
      "count": 1548,
      "max": [
        1.0,
        1.0,
        1.0,
        1.0
      ],
      "min": [
        -1.0,
        -1.0,
        -1.0,
        1.0
      ],
      "type": "VEC4"
    },
    {
      "bufferView": 1,
      "byteOffset": 1085736,
      "componentType": 5126,
      "count": 1548,
      "max": [
        0.9923673868179321,
        0.8889133930206299
      ],
      "min": [
        0.10125834494829178,
        0.0017135292291641235
      ],
      "type": "VEC2"
    },
    {
      "bufferView": 1,
      "byteOffset": 1098120,
      "componentType": 5126,
      "count": 1548,
      "max": [
        0.9923673868179321,
        0.8889133930206299
      ],
      "min": [
        0.10125834494829178,
        0.0017135292291641235
      ],
      "type": "VEC2"
    },
    {
      "bufferView": 1,
      "byteOffset": 1110504,
      "componentType": 5126,
      "count": 1548,
      "max": [
        0.9923673868179321,
        0.8889133930206299
      ],
      "min": [
        0.10125834494829178,
        0.0017135292291641235
      ],
      "type": "VEC2"
    },
    {
      "bufferView": 0,
      "byteOffset": 481152,
      "componentType": 5125,
      "count": 3648,
      "type": "SCALAR"
    },
    {
      "bufferView": 2,
      "byteOffset": 1122888,
      "componentType": 5126,
      "count": 2100,
      "max": [
        5.176874160766602,
        3.3478188514709473,
        1.1944934129714966
      ],
      "min": [
        -1.1944942474365234,
        -0.013498542830348015,
        -1.1944937705993652
      ],
      "type": "VEC3"
    },
    {
      "bufferView": 2,
      "byteOffset": 1148088,
      "componentType": 5126,
      "count": 2100,
      "max": [
        1.0,
        1.0,
        1.0
      ],
      "min": [
        -1.0,
        -1.0,
        -1.0
      ],
      "type": "VEC3"
    },
    {
      "bufferView": 3,
      "byteOffset": 748592,
      "componentType": 5126,
      "count": 2100,
      "max": [
        0.9999510645866394,
        1.0,
        1.0,
        1.0
      ],
      "min": [
        -1.0,
        -1.0,
        -1.0,
        1.0
      ],
      "type": "VEC4"
    },
    {
      "bufferView": 1,
      "byteOffset": 1122888,
      "componentType": 5126,
      "count": 2100,
      "max": [
        0.988287627696991,
        0.9396606087684631
      ],
      "min": [
        0.0017135415691882372,
        0.16358612477779388
      ],
      "type": "VEC2"
    },
    {
      "bufferView": 1,
      "byteOffset": 1139688,
      "componentType": 5126,
      "count": 2100,
      "max": [
        0.988287627696991,
        0.9396606087684631
      ],
      "min": [
        0.0017135415691882372,
        0.16358612477779388
      ],
      "type": "VEC2"
    },
    {
      "bufferView": 1,
      "byteOffset": 1156488,
      "componentType": 5126,
      "count": 2100,
      "max": [
        0.988287627696991,
        0.9396606087684631
      ],
      "min": [
        0.0017135415691882372,
        0.16358612477779388
      ],
      "type": "VEC2"
    },
    {
      "bufferView": 0,
      "byteOffset": 495744,
      "componentType": 5125,
      "count": 6816,
      "type": "SCALAR"
    },
    {
      "bufferView": 2,
      "byteOffset": 1173288,
      "componentType": 5126,
      "count": 878,
      "max": [
        1.3265151977539063,
        0.6116585731506348,
        1.3265236616134644
      ],
      "min": [
        -1.3265304565429688,
        -0.0036791707389056683,
        -1.3265233039855957
      ],
      "type": "VEC3"
    },
    {
      "bufferView": 2,
      "byteOffset": 1183824,
      "componentType": 5126,
      "count": 878,
      "max": [
        1.0,
        1.0,
        1.0
      ],
      "min": [
        -1.0,
        -0.9998152852058411,
        -1.0
      ],
      "type": "VEC3"
    },
    {
      "bufferView": 3,
      "byteOffset": 782192,
      "componentType": 5126,
      "count": 878,
      "max": [
        0.9999511241912842,
        1.0,
        1.0,
        1.0
      ],
      "min": [
        -0.9999515414237976,
        -0.2553407549858093,
        -1.0,
        1.0
      ],
      "type": "VEC4"
    },
    {
      "bufferView": 1,
      "byteOffset": 1173288,
      "componentType": 5126,
      "count": 878,
      "max": [
        0.8288651704788208,
        0.8990548849105835
      ],
      "min": [
        0.08838654309511185,
        0.17859965562820435
      ],
      "type": "VEC2"
    },
    {
      "bufferView": 1,
      "byteOffset": 1180312,
      "componentType": 5126,
      "count": 878,
      "max": [
        0.8288651704788208,
        0.8990548849105835
      ],
      "min": [
        0.08838654309511185,
        0.17859965562820435
      ],
      "type": "VEC2"
    },
    {
      "bufferView": 1,
      "byteOffset": 1187336,
      "componentType": 5126,
      "count": 878,
      "max": [
        0.8288651704788208,
        0.8990548849105835
      ],
      "min": [
        0.08838654309511185,
        0.17859965562820435
      ],
      "type": "VEC2"
    },
    {
      "bufferView": 0,
      "byteOffset": 523008,
      "componentType": 5125,
      "count": 2112,
      "type": "SCALAR"
    }
  ],
  "asset": {
    "extras": {
      "author": "Osian3D (https://sketchfab.com/OsianOHM)",
      "license": "CC-BY-4.0 (http://creativecommons.org/licenses/by/4.0/)",
      "source": "https://sketchfab.com/3d-models/large-modular-pipes-metal-b62f50fa4acd4184a4bc8491a15b5379",
      "title": "Large Modular Pipes (Metal)"
    },
    "generator": "Sketchfab-16.65.0",
    "version": "2.0"
  },
  "bufferViews": [
    {
      "buffer": 0,
      "byteLength": 531456,
      "name": "floatBufferViews",
      "target": 34963
    },
    {
      "buffer": 0,
      "byteLength": 1194360,
      "byteOffset": 531456,
      "byteStride": 8,
      "name": "floatBufferViews",
      "target": 34962
    },
    {
      "buffer": 0,
      "byteLength": 1194360,
      "byteOffset": 1725816,
      "byteStride": 12,
      "name": "floatBufferViews",
      "target": 34962
    },
    {
      "buffer": 0,
      "byteLength": 796240,
      "byteOffset": 2920176,
      "byteStride": 16,
      "name": "floatBufferViews",
      "target": 34962
    }
  ],
  "buffers": [
    {
      "byteLength": 3716416,
      "uri": "scene.bin"
    }
  ],
  "images": [
    {
      "uri": "textures/ModularPipes_Large_baseColor.png"
    },
    {
      "uri": "textures/ModularPipes_Large_metallicRoughness.png"
    },
    {
      "uri": "textures/ModularPipes_Large_normal.png"
    }
  ],
  "materials": [
    {
      "doubleSided": true,
      "name": "ModularPipes_Large",
      "normalTexture": {
        "index": 2
      },
      "pbrMetallicRoughness": {
        "baseColorTexture": {
          "index": 0
        },
        "metallicRoughnessTexture": {
          "index": 1
        }
      }
    }
  ],
  "meshes": [
    {
      "name": "Pipe_RoundElbow_ModularPipes_Large_0",
      "primitives": [
        {
          "attributes": {
            "NORMAL": 1,
            "POSITION": 0,
            "TANGENT": 2,
            "TEXCOORD_0": 3,
            "TEXCOORD_1": 4,
            "TEXCOORD_2": 5
          },
          "indices": 6,
          "material": 0,
          "mode": 4
        }
      ]
    },
    {
      "name": "Pipe_SquareElbow_ModularPipes_Large_0",
      "primitives": [
        {
          "attributes": {
            "NORMAL": 8,
            "POSITION": 7,
            "TANGENT": 9,
            "TEXCOORD_0": 10,
            "TEXCOORD_1": 11,
            "TEXCOORD_2": 12
          },
          "indices": 13,
          "material": 0,
          "mode": 4
        }
      ]
    },
    {
      "name": "Pipe_BigValve_ModularPipes_Large_0",
      "primitives": [
        {
          "attributes": {
            "NORMAL": 15,
            "POSITION": 14,
            "TANGENT": 16,
            "TEXCOORD_0": 17,
            "TEXCOORD_1": 18,
            "TEXCOORD_2": 19
          },
          "indices": 20,
          "material": 0,
          "mode": 4
        }
      ]
    },
    {
      "name": "Pipe_Cap_ModularPipes_Large_0",
      "primitives": [
        {
          "attributes": {
            "NORMAL": 22,
            "POSITION": 21,
            "TANGENT": 23,
            "TEXCOORD_0": 24,
            "TEXCOORD_1": 25,
            "TEXCOORD_2": 26
          },
          "indices": 27,
          "material": 0,
          "mode": 4
        }
      ]
    },
    {
      "name": "Pipe_Cap_Open_ModularPipes_Large_0",
      "primitives": [
        {
          "attributes": {
            "NORMAL": 29,
            "POSITION": 28,
            "TANGENT": 30,
            "TEXCOORD_0": 31,
            "TEXCOORD_1": 32,
            "TEXCOORD_2": 33
          },
          "indices": 34,
          "material": 0,
          "mode": 4
        }
      ]
    },
    {
      "name": "Pipe_Clamp_ModularPipes_Large_0",
      "primitives": [
        {
          "attributes": {
            "NORMAL": 36,
            "POSITION": 35,
            "TANGENT": 37,
            "TEXCOORD_0": 38,
            "TEXCOORD_1": 39,
            "TEXCOORD_2": 40
          },
          "indices": 41,
          "material": 0,
          "mode": 4
        }
      ]
    },
    {
      "name": "Pipe_Fitting_3Way_ModularPipes_Large_0",
      "primitives": [
        {
          "attributes": {
            "NORMAL": 43,
            "POSITION": 42,
            "TANGENT": 44,
            "TEXCOORD_0": 45,
            "TEXCOORD_1": 46,
            "TEXCOORD_2": 47
          },
          "indices": 48,
          "material": 0,
          "mode": 4
        }
      ]
    },
    {
      "name": "Pipe_Fitting_3Way_Round_ModularPipes_Large_0",
      "primitives": [
        {
          "attributes": {
            "NORMAL": 50,
            "POSITION": 49,
            "TANGENT": 51,
            "TEXCOORD_0": 52,
            "TEXCOORD_1": 53,
            "TEXCOORD_2": 54
          },
          "indices": 55,
          "material": 0,
          "mode": 4
        }
      ]
    },
    {
      "name": "Pipe_Fitting_3Way_T_ModularPipes_Large_0",
      "primitives": [
        {
          "attributes": {
            "NORMAL": 57,
            "POSITION": 56,
            "TANGENT": 58,
            "TEXCOORD_0": 59,
            "TEXCOORD_1": 60,
            "TEXCOORD_2": 61
          },
          "indices": 62,
          "material": 0,
          "mode": 4
        }
      ]
    },
    {
      "name": "Pipe_Fitting_3Way_TConnected_ModularPipes_Large_0",
      "primitives": [
        {
          "attributes": {
            "NORMAL": 64,
            "POSITION": 63,
            "TANGENT": 65,
            "TEXCOORD_0": 66,
            "TEXCOORD_1": 67,
            "TEXCOORD_2": 68
          },
          "indices": 69,
          "material": 0,
          "mode": 4
        }
      ]
    },
    {
      "name": "Pipe_Fitting_4Way_ModularPipes_Large_0",
      "primitives": [
        {
          "attributes": {
            "NORMAL": 71,
            "POSITION": 70,
            "TANGENT": 72,
            "TEXCOORD_0": 73,
            "TEXCOORD_1": 74,
            "TEXCOORD_2": 75
          },
          "indices": 76,
          "material": 0,
          "mode": 4
        }
      ]
    },
    {
      "name": "Pipe_Fitting_4Way.001_ModularPipes_Large_0",
      "primitives": [
        {
          "attributes": {
            "NORMAL": 78,
            "POSITION": 77,
            "TANGENT": 79,
            "TEXCOORD_0": 80,
            "TEXCOORD_1": 81,
            "TEXCOORD_2": 82
          },
          "indices": 83,
          "material": 0,
          "mode": 4
        }
      ]
    },
    {
      "name": "Pipe_Fitting_5Way_ModularPipes_Large_0",
      "primitives": [
        {
          "attributes": {
            "NORMAL": 85,
            "POSITION": 84,
            "TANGENT": 86,
            "TEXCOORD_0": 87,
            "TEXCOORD_1": 88,
            "TEXCOORD_2": 89
          },
          "indices": 90,
          "material": 0,
          "mode": 4
        }
      ]
    },
    {
      "name": "Pipe_Fitting_6Way_ModularPipes_Large_0",
      "primitives": [
        {
          "attributes": {
            "NORMAL": 92,
            "POSITION": 91,
            "TANGENT": 93,
            "TEXCOORD_0": 94,
            "TEXCOORD_1": 95,
            "TEXCOORD_2": 96
          },
          "indices": 97,
          "material": 0,
          "mode": 4
        }
      ]
    },
    {
      "name": "Pipe_Open_ModularPipes_Large_0",
      "primitives": [
        {
          "attributes": {
            "NORMAL": 99,
            "POSITION": 98,
            "TANGENT": 100,
            "TEXCOORD_0": 101,
            "TEXCOORD_1": 102,
            "TEXCOORD_2": 103
          },
          "indices": 104,
          "material": 0,
          "mode": 4
        }
      ]
    },
    {
      "name": "Pipe_RoundCorner_Long_ModularPipes_Large_0",
      "primitives": [
        {
          "attributes": {
            "NORMAL": 106,
            "POSITION": 105,
            "TANGENT": 107,
            "TEXCOORD_0": 108,
            "TEXCOORD_1": 109,
            "TEXCOORD_2": 110
          },
          "indices": 111,
          "material": 0,
          "mode": 4
        }
      ]
    },
    {
      "name": "Pipe_RoundCorner_Longer_ModularPipes_Large_0",
      "primitives": [
        {
          "attributes": {
            "NORMAL": 113,
            "POSITION": 112,
            "TANGENT": 114,
            "TEXCOORD_0": 115,
            "TEXCOORD_1": 116,
            "TEXCOORD_2": 117
          },
          "indices": 118,
          "material": 0,
          "mode": 4
        }
      ]
    },
    {
      "name": "Pipe_SmallValve_ModularPipes_Large_0",
      "primitives": [
        {
          "attributes": {
            "NORMAL": 120,
            "POSITION": 119,
            "TANGENT": 121,
            "TEXCOORD_0": 122,
            "TEXCOORD_1": 123,
            "TEXCOORD_2": 124
          },
          "indices": 125,
          "material": 0,
          "mode": 4
        }
      ]
    },
    {
      "name": "Pipe_Straight1_ModularPipes_Large_0",
      "primitives": [
        {
          "attributes": {
            "NORMAL": 127,
            "POSITION": 126,
            "TANGENT": 128,
            "TEXCOORD_0": 129,
            "TEXCOORD_1": 130,
            "TEXCOORD_2": 131
          },
          "indices": 132,
          "material": 0,
          "mode": 4
        }
      ]
    },
    {
      "name": "Pipe_Straight2_ModularPipes_Large_0",
      "primitives": [
        {
          "attributes": {
            "NORMAL": 134,
            "POSITION": 133,
            "TANGENT": 135,
            "TEXCOORD_0": 136,
            "TEXCOORD_1": 137,
            "TEXCOORD_2": 138
          },
          "indices": 139,
          "material": 0,
          "mode": 4
        }
      ]
    },
    {
      "name": "Pipe_Straight3_ModularPipes_Large_0",
      "primitives": [
        {
          "attributes": {
            "NORMAL": 141,
            "POSITION": 140,
            "TANGENT": 142,
            "TEXCOORD_0": 143,
            "TEXCOORD_1": 144,
            "TEXCOORD_2": 145
          },
          "indices": 146,
          "material": 0,
          "mode": 4
        }
      ]
    },
    {
      "name": "Pipe_Straight4_ModularPipes_Large_0",
      "primitives": [
        {
          "attributes": {
            "NORMAL": 148,
            "POSITION": 147,
            "TANGENT": 149,
            "TEXCOORD_0": 150,
            "TEXCOORD_1": 151,
            "TEXCOORD_2": 152
          },
          "indices": 153,
          "material": 0,
          "mode": 4
        }
      ]
    },
    {
      "name": "Pipe_Straight5_ModularPipes_Large_0",
      "primitives": [
        {
          "attributes": {
            "NORMAL": 155,
            "POSITION": 154,
            "TANGENT": 156,
            "TEXCOORD_0": 157,
            "TEXCOORD_1": 158,
            "TEXCOORD_2": 159
          },
          "indices": 160,
          "material": 0,
          "mode": 4
        }
      ]
    },
    {
      "name": "Pipe_Straight6_ModularPipes_Large_0",
      "primitives": [
        {
          "attributes": {
            "NORMAL": 162,
            "POSITION": 161,
            "TANGENT": 163,
            "TEXCOORD_0": 164,
            "TEXCOORD_1": 165,
            "TEXCOORD_2": 166
          },
          "indices": 167,
          "material": 0,
          "mode": 4
        }
      ]
    },
    {
      "name": "Pipe_UBend_ModularPipes_Large_0",
      "primitives": [
        {
          "attributes": {
            "NORMAL": 169,
            "POSITION": 168,
            "TANGENT": 170,
            "TEXCOORD_0": 171,
            "TEXCOORD_1": 172,
            "TEXCOORD_2": 173
          },
          "indices": 174,
          "material": 0,
          "mode": 4
        }
      ]
    },
    {
      "name": "Pipe_WallConnector_ModularPipes_Large_0",
      "primitives": [
        {
          "attributes": {
            "NORMAL": 176,
            "POSITION": 175,
            "TANGENT": 177,
            "TEXCOORD_0": 178,
            "TEXCOORD_1": 179,
            "TEXCOORD_2": 180
          },
          "indices": 181,
          "material": 0,
          "mode": 4
        }
      ]
    }
  ],
  "nodes": [
    {
      "children": [
        1
      ],
      "matrix": [
        1.0,
        0.0,
        0.0,
        0.0,
        0.0,
        2.220446049250313e-16,
        -1.0,
        0.0,
        0.0,
        1.0,
        2.220446049250313e-16,
        0.0,
        0.0,
        0.0,
        0.0,
        1.0
      ],
      "name": "Sketchfab_model"
    },
    {
      "children": [
        2
      ],
      "matrix": [
        0.009999999776482582,
        0.0,
        0.0,
        0.0,
        0.0,
        0.0,
        0.009999999776482582,
        0.0,
        0.0,
        -0.009999999776482582,
        0.0,
        0.0,
        0.0,
        0.0,
        0.0,
        1.0
      ],
      "name": "fd1d637280c34a9982938917dcd3267e.fbx"
    },
    {
      "children": [
        3,
        5,
        7,
        9,
        11,
        13,
        15,
        17,
        19,
        21,
        23,
        25,
        27,
        29,
        31,
        33,
        35,
        37,
        39,
        41,
        43,
        45,
        47,
        49,
        51,
        53
      ],
      "name": "RootNode"
    },
    {
      "children": [
        4
      ],
      "matrix": [
        100.0,
        0.0,
        0.0,
        0.0,
        0.0,
        -1.629206793918314e-05,
        -99.99999999999868,
        0.0,
        0.0,
        99.99999999999868,
        -1.629206793918314e-05,
        0.0,
        3604.275390625,
        0.0,
        -0.0003814697265625,
        1.0
      ],
      "name": "Pipe_RoundElbow"
    },
    {
      "mesh": 0,
      "name": "Pipe_RoundElbow_ModularPipes_Large_0"
    },
    {
      "children": [
        6
      ],
      "matrix": [
        100.0,
        0.0,
        0.0,
        0.0,
        0.0,
        -1.629206793918314e-05,
        -99.99999999999868,
        0.0,
        0.0,
        99.99999999999868,
        -1.629206793918314e-05,
        0.0,
        3157.875,
        0.0,
        -0.0003814697265625,
        1.0
      ],
      "name": "Pipe_SquareElbow"
    },
    {
      "mesh": 1,
      "name": "Pipe_SquareElbow_ModularPipes_Large_0"
    },
    {
      "children": [
        8
      ],
      "matrix": [
        100.0,
        0.0,
        0.0,
        0.0,
        0.0,
        99.9999999999999,
        4.371138828673792e-06,
        0.0,
        0.0,
        -4.371138828673792e-06,
        99.9999999999999,
        0.0,
        0.0,
        0.0,
        -2652.5888671875,
        1.0
      ],
      "name": "Pipe_BigValve"
    },
    {
      "mesh": 2,
      "name": "Pipe_BigValve_ModularPipes_Large_0"
    },
    {
      "children": [
        10
      ],
      "matrix": [
        100.0,
        0.0,
        0.0,
        0.0,
        0.0,
        99.9999999999999,
        4.371138828673792e-06,
        0.0,
        0.0,
        -4.371138828673792e-06,
        99.9999999999999,
        0.0,
        1633.6514892578125,
        0.0,
        -2652.589111328125,
        1.0
      ],
      "name": "Pipe_Cap"
    },
    {
      "mesh": 3,
      "name": "Pipe_Cap_ModularPipes_Large_0"
    },
    {
      "children": [
        12
      ],
      "matrix": [
        100.0,
        0.0,
        0.0,
        0.0,
        0.0,
        99.9999999999999,
        4.371138828673792e-06,
        0.0,
        0.0,
        -4.371138828673792e-06,
        99.9999999999999,
        0.0,
        1160.2529296875,
        0.0,
        -2652.5888671875,
        1.0
      ],
      "name": "Pipe_Cap_Open"
    },
    {
      "mesh": 4,
      "name": "Pipe_Cap_Open_ModularPipes_Large_0"
    },
    {
      "children": [
        14
      ],
      "matrix": [
        100.0,
        0.0,
        0.0,
        0.0,
        0.0,
        99.9999999999999,
        4.371138828673792e-06,
        0.0,
        0.0,
        -4.371138828673792e-06,
        99.9999999999999,
        0.0,
        2148.60791015625,
        -1.4210854715202004e-12,
        -2652.589111328125,
        1.0
      ],
      "name": "Pipe_Clamp"
    },
    {
      "mesh": 5,
      "name": "Pipe_Clamp_ModularPipes_Large_0"
    },
    {
      "children": [
        16
      ],
      "matrix": [
        100.0,
        0.0,
        0.0,
        0.0,
        0.0,
        -1.629206793918314e-05,
        -99.99999999999868,
        0.0,
        0.0,
        99.99999999999868,
        -1.629206793918314e-05,
        0.0,
        616.2199096679688,
        0.0,
        -1680.48876953125,
        1.0
      ],
      "name": "Pipe_Fitting_3Way"
    },
    {
      "mesh": 6,
      "name": "Pipe_Fitting_3Way_ModularPipes_Large_0"
    },
    {
      "children": [
        18
      ],
      "matrix": [
        100.0,
        0.0,
        0.0,
        0.0,
        0.0,
        -1.629206793918314e-05,
        -99.99999999999868,
        0.0,
        0.0,
        99.99999999999868,
        -1.629206793918314e-05,
        0.0,
        0.0,
        0.0,
        -1680.48876953125,
        1.0
      ],
      "name": "Pipe_Fitting_3Way_Round"
    },
    {
      "mesh": 7,
      "name": "Pipe_Fitting_3Way_Round_ModularPipes_Large_0"
    },
    {
      "children": [
        20
      ],
      "matrix": [
        100.0,
        0.0,
        0.0,
        0.0,
        0.0,
        -1.629206793918314e-05,
        -99.99999999999868,
        0.0,
        0.0,
        99.99999999999868,
        -1.629206793918314e-05,
        0.0,
        3636.0595703125,
        9.62366698331607e-07,
        -1480.489013671875,
        1.0
      ],
      "name": "Pipe_Fitting_3Way_T"
    },
    {
      "mesh": 8,
      "name": "Pipe_Fitting_3Way_T_ModularPipes_Large_0"
    },
    {
      "children": [
        22
      ],
      "matrix": [
        100.0,
        0.0,
        0.0,
        0.0,
        0.0,
        -1.629206793918314e-05,
        -99.99999999999868,
        0.0,
        0.0,
        99.99999999999868,
        -1.629206793918314e-05,
        0.0,
        4160.83984375,
        2.0116567611694336e-05,
        -1480.489013671875,
        1.0
      ],
      "name": "Pipe_Fitting_3Way_TConnected"
    },
    {
      "mesh": 9,
      "name": "Pipe_Fitting_3Way_TConnected_ModularPipes_Large_0"
    },
    {
      "children": [
        24
      ],
      "matrix": [
        100.0,
        0.0,
        0.0,
        0.0,
        0.0,
        -1.629206793918314e-05,
        -99.99999999999868,
        0.0,
        0.0,
        99.99999999999868,
        -1.629206793918314e-05,
        0.0,
        2977.820068359375,
        0.0,
        -1480.489013671875,
        1.0
      ],
      "name": "Pipe_Fitting_4Way"
    },
    {
      "mesh": 10,
      "name": "Pipe_Fitting_4Way_ModularPipes_Large_0"
    },
    {
      "children": [
        26
      ],
      "matrix": [
        100.0,
        0.0,
        0.0,
        0.0,
        0.0,
        -1.629206793918314e-05,
        -99.99999999999868,
        0.0,
        0.0,
        99.99999999999868,
        -1.629206793918314e-05,
        0.0,
        1190.3409423828125,
        0.0,
        -1480.4888916015625,
        1.0
      ],
      "name": "Pipe_Fitting_4Way.001"
    },
    {
      "mesh": 11,
      "name": "Pipe_Fitting_4Way.001_ModularPipes_Large_0"
    },
    {
      "children": [
        28
      ],
      "matrix": [
        100.0,
        0.0,
        0.0,
        0.0,
        0.0,
        -1.629206793918314e-05,
        -99.99999999999868,
        0.0,
        0.0,
        99.99999999999868,
        -1.629206793918314e-05,
        0.0,
        1757.1195068359375,
        0.0,
        -1480.4888916015625,
        1.0
      ],
      "name": "Pipe_Fitting_5Way"
    },
    {
      "mesh": 12,
      "name": "Pipe_Fitting_5Way_ModularPipes_Large_0"
    },
    {
      "children": [
        30
      ],
      "matrix": [
        100.0,
        0.0,
        0.0,
        0.0,
        0.0,
        -1.629206793918314e-05,
        -99.99999999999868,
        0.0,
        0.0,
        99.99999999999868,
        -1.629206793918314e-05,
        0.0,
        2380.406005859375,
        0.0,
        -1480.489013671875,
        1.0
      ],
      "name": "Pipe_Fitting_6Way"
    },
    {
      "mesh": 13,
      "name": "Pipe_Fitting_6Way_ModularPipes_Large_0"
    },
    {
      "children": [
        32
      ],
      "matrix": [
        100.0,
        0.0,
        0.0,
        0.0,
        0.0,
        -1.629206793918314e-05,
        -99.99999999999868,
        0.0,
        0.0,
        99.99999999999868,
        -1.629206793918314e-05,
        0.0,
        2798.339111328125,
        -1.924733396663214e-06,
        -0.00019073486328125,
        1.0
      ],
      "name": "Pipe_Open"
    },
    {
      "mesh": 14,
      "name": "Pipe_Open_ModularPipes_Large_0"
    },
    {
      "children": [
        34
      ],
      "matrix": [
        100.0,
        0.0,
        0.0,
        0.0,
        0.0,
        -1.629206793918314e-05,
        -99.99999999999868,
        0.0,
        0.0,
        99.99999999999868,
        -1.629206793918314e-05,
        0.0,
        4452.78466796875,
        0.0,
        -0.0003814697265625,
        1.0
      ],
      "name": "Pipe_RoundCorner_Long"
    },
    {
      "mesh": 15,
      "name": "Pipe_RoundCorner_Long_ModularPipes_Large_0"
    },
    {
      "children": [
        36
      ],
      "matrix": [
        100.0,
        0.0,
        0.0,
        0.0,
        0.0,
        -1.629206793918314e-05,
        -99.99999999999868,
        0.0,
        0.0,
        99.99999999999868,
        -1.629206793918314e-05,
        0.0,
        4072.362548828125,
        0.0,
        -0.0003814697265625,
        1.0
      ],
      "name": "Pipe_RoundCorner_Longer"
    },
    {
      "mesh": 16,
      "name": "Pipe_RoundCorner_Longer_ModularPipes_Large_0"
    },
    {
      "children": [
        38
      ],
      "matrix": [
        100.0,
        0.0,
        0.0,
        0.0,
        0.0,
        99.9999999999999,
        4.371138828673792e-06,
        0.0,
        0.0,
        -4.371138828673792e-06,
        99.9999999999999,
        0.0,
        586.7185668945313,
        0.0,
        -2652.5888671875,
        1.0
      ],
      "name": "Pipe_SmallValve"
    },
    {
      "mesh": 17,
      "name": "Pipe_SmallValve_ModularPipes_Large_0"
    },
    {
      "children": [
        40
      ],
      "matrix": [
        100.0,
        0.0,
        0.0,
        0.0,
        0.0,
        -1.629206793918314e-05,
        -99.99999999999868,
        0.0,
        0.0,
        99.99999999999868,
        -1.629206793918314e-05,
        0.0,
        2352.57177734375,
        0.0,
        -0.00019073486328125,
        1.0
      ],
      "name": "Pipe_Straight1"
    },
    {
      "mesh": 18,
      "name": "Pipe_Straight1_ModularPipes_Large_0"
    },
    {
      "children": [
        42
      ],
      "matrix": [
        100.0,
        0.0,
        0.0,
        0.0,
        0.0,
        -1.629206793918314e-05,
        -99.99999999999868,
        0.0,
        0.0,
        99.99999999999868,
        -1.629206793918314e-05,
        0.0,
        1899.0394287109375,
        0.0,
        -0.00019073486328125,
        1.0
      ],
      "name": "Pipe_Straight2"
    },
    {
      "mesh": 19,
      "name": "Pipe_Straight2_ModularPipes_Large_0"
    },
    {
      "children": [
        44
      ],
      "matrix": [
        100.0,
        0.0,
        0.0,
        0.0,
        0.0,
        -1.629206793918314e-05,
        -99.99999999999868,
        0.0,
        0.0,
        99.99999999999868,
        -1.629206793918314e-05,
        0.0,
        1432.148681640625,
        0.0,
        -9.5367431640625e-05,
        1.0
      ],
      "name": "Pipe_Straight3"
    },
    {
      "mesh": 20,
      "name": "Pipe_Straight3_ModularPipes_Large_0"
    },
    {
      "children": [
        46
      ],
      "matrix": [
        100.0,
        0.0,
        0.0,
        0.0,
        0.0,
        -1.629206793918314e-05,
        -99.99999999999868,
        0.0,
        0.0,
        99.99999999999868,
        -1.629206793918314e-05,
        0.0,
        979.1793823242188,
        0.0,
        -9.5367431640625e-05,
        1.0
      ],
      "name": "Pipe_Straight4"
    },
    {
      "mesh": 21,
      "name": "Pipe_Straight4_ModularPipes_Large_0"
    },
    {
      "children": [
        48
      ],
      "matrix": [
        100.0,
        0.0,
        0.0,
        0.0,
        0.0,
        -1.629206793918314e-05,
        -99.99999999999868,
        0.0,
        0.0,
        99.99999999999868,
        -1.629206793918314e-05,
        0.0,
        496.356201171875,
        0.0,
        -4.76837158203125e-05,
        1.0
      ],
      "name": "Pipe_Straight5"
    },
    {
      "mesh": 22,
      "name": "Pipe_Straight5_ModularPipes_Large_0"
    },
    {
      "children": [
        50
      ],
      "matrix": [
        100.0,
        0.0,
        0.0,
        0.0,
        0.0,
        -1.629206793918314e-05,
        -99.99999999999868,
        0.0,
        0.0,
        99.99999999999868,
        -1.629206793918314e-05,
        0.0,
        0.0,
        0.0,
        0.0,
        1.0
      ],
      "name": "Pipe_Straight6"
    },
    {
      "mesh": 23,
      "name": "Pipe_Straight6_ModularPipes_Large_0"
    },
    {
      "children": [
        52
      ],
      "matrix": [
        100.0,
        0.0,
        0.0,
        0.0,
        0.0,
        -1.629206793918314e-05,
        -99.99999999999868,
        0.0,
        0.0,
        99.99999999999868,
        -1.629206793918314e-05,
        0.0,
        4811.9482421875,
        0.0,
        -0.0003814697265625,
        1.0
      ],
      "name": "Pipe_UBend"
    },
    {
      "mesh": 24,
      "name": "Pipe_UBend_ModularPipes_Large_0"
    },
    {
      "children": [
        54
      ],
      "matrix": [
        100.0,
        0.0,
        0.0,
        0.0,
        0.0,
        99.9999999999999,
        4.371138828673792e-06,
        0.0,
        0.0,
        -4.371138828673792e-06,
        99.9999999999999,
        0.0,
        2605.099365234375,
        0.0,
        -2652.589111328125,
        1.0
      ],
      "name": "Pipe_WallConnector"
    },
    {
      "mesh": 25,
      "name": "Pipe_WallConnector_ModularPipes_Large_0"
    }
  ],
  "samplers": [
    {
      "magFilter": 9729,
      "minFilter": 9987,
      "wrapS": 10497,
      "wrapT": 10497
    }
  ],
  "scene": 0,
  "scenes": [
    {
      "name": "Sketchfab_Scene",
      "nodes": [
        0
      ]
    }
  ],
  "textures": [
    {
      "sampler": 0,
      "source": 0
    },
    {
      "sampler": 0,
      "source": 1
    },
    {
      "sampler": 0,
      "source": 2
    }
  ]
}
